<?xml version="1.0" encoding="UTF-8"?>
<svg xmlns="http://www.w3.org/2000/svg" viewBox="0 0 1920 7087.85">
  <defs>
    <style>
      .cls-1 {
        fill: none;
      }

      .cls-2 {
        fill: #919191;
      }

      .cls-3 {
        fill: #eff0f5;
      }
    </style>
  </defs>
  <g id="Layer_24" data-name="Layer 24">
    <rect class="cls-1" x="1020.89" y="3474.01" width="480.14" height="632.48"/>
    <rect class="cls-1" x="428.97" y="3474.01" width="480.14" height="632.48"/>
    <path class="cls-3" d="M324.52,4293.04h1270.96v-1028.21H324.52v1028.21ZM1020.89,3466.01h480.14v632.48h-480.14v-632.48ZM428.97,3466.01h480.14v632.48h-480.14v-632.48Z"/>
    <rect class="cls-2" x="324.52" y="2391.54" width="1270.96" height="76.27"/>
  </g>
  <g id="Layer_37" data-name="Layer 37">
    <path class="cls-3" d="M324.52,6119.46h1270.96v-1028.21H324.52v1028.21ZM1020.89,5292.44h480.14v632.48h-480.14v-632.48ZM428.97,5292.44h480.14v632.48h-480.14v-632.48Z"/>
  </g>
  <g id="Layer_32" data-name="Layer 32">
    <path class="cls-3" d="M324.52,4149.78v1055.48s1270.96,0,1270.96,0v-1055.48s-1270.96,0-1270.96,0ZM428.97,4377.78h480.14v632.48h-480.14v-632.48Z"/>
  </g>
  <g id="Layer_44" data-name="Layer 44">
    <rect class="cls-3" x="324.52" y="6090.07" width="1270.96" height="997.78"/>
  </g>
  <g id="Layer_9" data-name="Layer 9">
    <rect class="cls-1" x="428.97" y="786.31" width="480.14" height="632.48"/>
    <rect class="cls-1" x="428.97" y="1640.78" width="480.14" height="632.48"/>
    <rect class="cls-1" x="1020.89" y="1640.78" width="480.14" height="632.48"/>
    <path class="cls-3" d="M324.52,558.3v1909.5h1270.96V558.3H324.52ZM909.11,2273.26h-480.14v-632.48h480.14v632.48ZM909.11,1418.78h-480.14v-632.48h480.14v632.48ZM1501.03,2273.26h-480.14v-632.48h480.14v632.48Z"/>
    <rect class="cls-1" x="1010.89" y="2553.25" width="480.14" height="632.48"/>
    <path class="cls-3" d="M324.52,2325.24v1055.48h1270.96v-1055.48H324.52ZM1491.03,3185.72h-480.14v-632.48h480.14v632.48Z"/>
  </g>
</svg>